<svg xmlns="http://www.w3.org/2000/svg" viewBox="0 0 320 260" fill="none"><g stroke="#171715" stroke-width="5" stroke-linecap="round" stroke-linejoin="round"><path d="M62 55h196M82 55v159m156-159v159M60 214h200"/><path d="M117 61c0 15 16 14 16 27m27-27c0 15 16 14 16 27m27-27c0 15 16 14 16 27" stroke-width="3"/><path d="m102 90 31-14 31 14-10 44h-42l-10-44Z" fill="#e9ece9"/><path d="m145 90 31-14 31 14-8 55h-46l-8-55Z" fill="#d9dedb"/><path d="m188 90 31-14 31 14-7 43h-48l-7-43Z" fill="#fafaf8"/><path d="M60 214h200" stroke="#607c8d"/><circle cx="79" cy="230" r="9" fill="#171715"/><circle cx="241" cy="230" r="9" fill="#171715"/></g></svg>
